<svg xmlns="http://www.w3.org/2000/svg" viewBox="0 0 64 64" role="img" aria-label="League of Legends icon">
  <defs>
    <radialGradient id="league-core" cx="46%" cy="45%" r="62%">
      <stop offset="0" stop-color="#23d0d9" />
      <stop offset="0.55" stop-color="#057b86" />
      <stop offset="1" stop-color="#05394a" />
    </radialGradient>
    <linearGradient id="league-gold" x1="12" x2="48" y1="7" y2="57" gradientUnits="userSpaceOnUse">
      <stop offset="0" stop-color="#f7df85" />
      <stop offset="0.42" stop-color="#b57924" />
      <stop offset="0.72" stop-color="#f0c95d" />
      <stop offset="1" stop-color="#8a551c" />
    </linearGradient>
    <linearGradient id="league-shadow" x1="0" x2="1" y1="0" y2="1">
      <stop offset="0" stop-color="#1f160b" />
      <stop offset="1" stop-color="#4a2b11" />
    </linearGradient>
  </defs>
  <circle cx="35.5" cy="33.5" r="21.2" fill="url(#league-core)" />
  <path
    d="M14.6 43.4a29 29 0 0 1 8.7-29.7l3.5 4.7a23 23 0 0 0-6.7 22.9l-5.5 2.1Zm39.8 0-5.5-2.1a23 23 0 0 0-6.7-22.9l3.5-4.7a29 29 0 0 1 8.7 29.7Z"
    fill="url(#league-shadow)"
    opacity="0.78"
  />
  <path
    d="M14.2 44a30.5 30.5 0 0 1 9.1-31.6l3 4a25.4 25.4 0 0 0-7.5 25.8L14.2 44Zm40.6 0-4.6-1.8a25.4 25.4 0 0 0-7.5-25.8l3-4A30.5 30.5 0 0 1 54.8 44Z"
    fill="url(#league-gold)"
  />
  <path
    d="M18 10h19v5.8l-5.4 1.4v29.5h18.2L43.2 55H18v-7.2l4.8-1.2V17.4L18 16.2V10Z"
    fill="#31200e"
    opacity="0.72"
  />
  <path
    d="M15.5 8.3h19.2v5.8l-5.1 1.2v29.3H50L42.9 53H15.5v-7.3l5.1-1.2V16l-5.1-1.2V8.3Z"
    fill="url(#league-gold)"
  />
  <path
    d="M22.9 14.4h5.6v33.4h-5.6V14.4Zm7.2 35.2h11.2l-1.8 2.1H30.1v-2.1Z"
    fill="#fff0a3"
    opacity="0.24"
  />
  <path
    d="M33 16.1c6.2 1.2 11.2 5.6 13.6 11.4-3.1-4.4-7.8-7.5-13.6-8.5v-2.9Z"
    fill="#ffffff"
    opacity="0.12"
  />
</svg>
